<svg xmlns="http://www.w3.org/2000/svg" width="400" height="358">
  <rect width="400" height="358" rx="10" fill="#ffffff" stroke="#d0d7de" stroke-width="1"/>
  <text x="20" y="30" font-size="16" font-weight="700" fill="#24292f"
        font-family="-apple-system,BlinkMacSystemFont,'Segoe UI',Helvetica,Arial,sans-serif">Top Languages &amp; Frameworks</text>

  <!-- SQL -->
  <text x="20" y="63" font-size="13" fill="#e38c00" font-weight="600"
        font-family="-apple-system,BlinkMacSystemFont,'Segoe UI',Helvetica,Arial,sans-serif">SQL</text>
  <text x="380" y="63" font-size="12" fill="#57606a" text-anchor="end"
        font-family="-apple-system,BlinkMacSystemFont,'Segoe UI',Helvetica,Arial,sans-serif">25.29%</text>
  <rect x="20" y="70" width="260" height="8" rx="4" fill="#eaedf0"/>
  <rect x="20" y="70" width="65.77" height="8" rx="4" fill="#e38c00"/>
  <!-- GitHub Actions -->
  <text x="20" y="99" font-size="13" fill="#58a6ff" font-weight="600"
        font-family="-apple-system,BlinkMacSystemFont,'Segoe UI',Helvetica,Arial,sans-serif">GitHub Actions</text>
  <text x="380" y="99" font-size="12" fill="#57606a" text-anchor="end"
        font-family="-apple-system,BlinkMacSystemFont,'Segoe UI',Helvetica,Arial,sans-serif">15.87%</text>
  <rect x="20" y="106" width="260" height="8" rx="4" fill="#eaedf0"/>
  <rect x="20" y="106" width="41.27" height="8" rx="4" fill="#58a6ff"/>
  <!-- TypeScript -->
  <text x="20" y="135" font-size="13" fill="#3178c6" font-weight="600"
        font-family="-apple-system,BlinkMacSystemFont,'Segoe UI',Helvetica,Arial,sans-serif">TypeScript</text>
  <text x="380" y="135" font-size="12" fill="#57606a" text-anchor="end"
        font-family="-apple-system,BlinkMacSystemFont,'Segoe UI',Helvetica,Arial,sans-serif">15.51%</text>
  <rect x="20" y="142" width="260" height="8" rx="4" fill="#eaedf0"/>
  <rect x="20" y="142" width="40.32" height="8" rx="4" fill="#3178c6"/>
  <!-- Docker -->
  <text x="20" y="171" font-size="13" fill="#2496ed" font-weight="600"
        font-family="-apple-system,BlinkMacSystemFont,'Segoe UI',Helvetica,Arial,sans-serif">Docker</text>
  <text x="380" y="171" font-size="12" fill="#57606a" text-anchor="end"
        font-family="-apple-system,BlinkMacSystemFont,'Segoe UI',Helvetica,Arial,sans-serif">12.19%</text>
  <rect x="20" y="178" width="260" height="8" rx="4" fill="#eaedf0"/>
  <rect x="20" y="178" width="31.69" height="8" rx="4" fill="#2496ed"/>
  <!-- React -->
  <text x="20" y="207" font-size="13" fill="#61dafb" font-weight="600"
        font-family="-apple-system,BlinkMacSystemFont,'Segoe UI',Helvetica,Arial,sans-serif">React</text>
  <text x="380" y="207" font-size="12" fill="#57606a" text-anchor="end"
        font-family="-apple-system,BlinkMacSystemFont,'Segoe UI',Helvetica,Arial,sans-serif">9.86%</text>
  <rect x="20" y="214" width="260" height="8" rx="4" fill="#eaedf0"/>
  <rect x="20" y="214" width="25.64" height="8" rx="4" fill="#61dafb"/>
  <!-- HTML -->
  <text x="20" y="243" font-size="13" fill="#e34c26" font-weight="600"
        font-family="-apple-system,BlinkMacSystemFont,'Segoe UI',Helvetica,Arial,sans-serif">HTML</text>
  <text x="380" y="243" font-size="12" fill="#57606a" text-anchor="end"
        font-family="-apple-system,BlinkMacSystemFont,'Segoe UI',Helvetica,Arial,sans-serif">8.45%</text>
  <rect x="20" y="250" width="260" height="8" rx="4" fill="#eaedf0"/>
  <rect x="20" y="250" width="21.97" height="8" rx="4" fill="#e34c26"/>
  <!-- Dart -->
  <text x="20" y="279" font-size="13" fill="#00B4AB" font-weight="600"
        font-family="-apple-system,BlinkMacSystemFont,'Segoe UI',Helvetica,Arial,sans-serif">Dart</text>
  <text x="380" y="279" font-size="12" fill="#57606a" text-anchor="end"
        font-family="-apple-system,BlinkMacSystemFont,'Segoe UI',Helvetica,Arial,sans-serif">7.42%</text>
  <rect x="20" y="286" width="260" height="8" rx="4" fill="#eaedf0"/>
  <rect x="20" y="286" width="19.30" height="8" rx="4" fill="#00B4AB"/>
  <!-- CSS -->
  <text x="20" y="315" font-size="13" fill="#563d7c" font-weight="600"
        font-family="-apple-system,BlinkMacSystemFont,'Segoe UI',Helvetica,Arial,sans-serif">CSS</text>
  <text x="380" y="315" font-size="12" fill="#57606a" text-anchor="end"
        font-family="-apple-system,BlinkMacSystemFont,'Segoe UI',Helvetica,Arial,sans-serif">2.82%</text>
  <rect x="20" y="322" width="260" height="8" rx="4" fill="#eaedf0"/>
  <rect x="20" y="322" width="7.32" height="8" rx="4" fill="#563d7c"/>
</svg>
